<svg fill="#fff" height="16" viewBox="0 0 21 16" width="21" xmlns="http://www.w3.org/2000/svg"><path d="m55.5929644 215.348992c-.5753991.465825-1.3145979.722729-2.0821467.722729-.7664988 0-1.5077976-.255904-2.1062966-.736724-3.773694-3.027868-6.1760902-4.634267-6.30104-7.929035-.1312498-3.486695 3.8797438-4.761219 6.3388399-1.89629.4976992.578783 1.245298.910659 2.0516967.910659.8137487 0 1.5665975-.335874 2.0653467-.921655 2.4055462-2.818946 6.5236396-1.618395 6.3356899 2.009248-.1679997 3.226793-2.6627957 4.89317-6.3020899 7.841068m-1.6862973-11.038872c-.1028999.120955-.2582996.181932-.4126494.181932-.1511997 0-.3013495-.058978-.4021493-.175934-3.7201441-4.333379-10.2889336-2.175186-10.0873339 3.156819.1606497 4.243413 3.3190447 6.346627 7.0381387 9.330511.9943485.797701 2.2312465 1.196552 3.4681445 1.196552 1.240048 0 2.479046-.40085 3.4712945-1.204549 3.6781441-2.979886 6.7966391-5.069105 7.0097888-9.196561.2834995-5.450961-6.3745399-7.640142-10.0852339-3.28877" fill-rule="evenodd" transform="translate(-43 -202)"/></svg>