<svg fill="#fff" height="20" viewBox="0 0 20 20" width="20" xmlns="http://www.w3.org/2000/svg"><path d="m134 2008.99998c-2.216504 0-4.019045-1.794-4.019045-4s1.802541-4 4.019045-4 4.019045 1.794 4.019045 4-1.802541 4-4.019045 4m3.775893.673c1.594556-1.277 2.523961-3.342 2.182342-5.603-.396881-2.623-2.58927-4.722-5.235812-5.028-3.652307-.423-6.750991 2.407-6.750991 5.958 0 1.89.880171 3.574 2.252675 4.673-3.371979 1.261-5.833644 4.222-6.219473 8.218-.056266.591.406929 1.109 1.003757 1.109.511423 0 .94749-.384.992704-.891.402909-4.463 3.836179-7.109 7.998905-7.109s7.595996 2.646 7.998905 7.109c.045214.507.481281.891.992704.891.596828 0 1.060023-.518 1.003757-1.109-.385829-3.996-2.847494-6.957-6.219473-8.218" fill-rule="evenodd" transform="translate(-124 -1999)"/></svg>